<?xml version="1.0" encoding="UTF-8" standalone="no"?>
<!DOCTYPE svg PUBLIC "-//W3C//DTD SVG 20010904//EN"
              "http://www.w3.org/TR/2001/REC-SVG-20010904/DTD/svg10.dtd">
<svg xmlns="http://www.w3.org/2000/svg"
     width="32" height="32"
     preserveAspectRatio="xMidYMid meet"
     viewBox="150 150 330 330">
  <path id="icon1"
        fill="orange" stroke="black" stroke-width="1"
        d="M 281.00,304.00
           C 283.39,295.54 285.88,292.75 286.00,283.00
             286.23,263.32 278.02,248.50 278.00,233.00
             278.00,233.00 278.00,220.00 278.00,220.00
             278.03,203.82 288.15,183.72 299.13,172.04
             301.84,169.15 304.50,167.46 307.49,165.01
             315.66,158.31 324.55,154.39 335.00,153.00
             328.77,164.04 325.63,162.91 321.78,178.00
             321.78,178.00 320.22,185.00 320.22,185.00
             320.00,187.92 320.74,190.21 321.34,193.00
             323.69,204.04 326.14,208.66 332.33,218.00
             342.80,233.78 357.00,250.60 359.79,270.00
             362.12,286.18 360.31,302.67 351.94,317.00
             337.73,341.33 316.85,351.90 310.67,382.00
             307.05,399.61 312.36,411.28 311.49,425.00
             310.84,435.20 309.57,443.55 305.41,453.00
             302.87,458.77 300.01,464.05 295.00,468.00
             296.95,458.35 299.87,452.64 300.00,442.00
             300.11,432.18 298.32,422.17 294.75,413.00
             285.34,388.87 266.64,370.70 257.63,351.83
             251.58,339.14 250.84,333.59 249.91,320.00
             249.91,320.00 249.18,313.00 249.18,313.00
             249.18,313.00 249.96,305.00 249.96,305.00
             250.53,293.14 255.15,275.39 264.00,267.00
             264.00,267.00 265.69,276.00 265.69,276.00
             268.32,289.79 271.25,293.97 281.00,304.00 Z" />
  <path id="icon2"
        fill="orange" stroke="black" stroke-width="1"
        d="M 241.00,267.00
           C 240.72,271.17 237.55,273.48 235.00,276.51
             232.49,279.50 228.09,285.62 226.17,289.01
             216.57,306.01 213.84,321.02 218.33,340.00
             225.11,368.60 249.87,379.79 266.33,401.28
             277.74,416.19 280.21,429.86 280.00,448.00
             279.92,454.62 277.90,464.62 274.00,470.00
             273.99,450.66 267.09,435.06 253.58,421.28
             242.86,410.37 229.13,403.78 217.32,394.33
             198.96,379.64 186.91,355.64 189.72,332.00
             190.65,324.12 190.59,320.75 193.94,313.00
             197.88,303.86 202.86,295.58 209.32,288.00
             218.45,277.31 228.71,272.72 241.00,267.00 Z" />
  <path id="icon3"
        fill="blue" stroke="black" stroke-width="1"
        d="M 340.00,404.00
           C 322.84,400.14 316.92,379.38 328.26,367.08
             333.54,361.35 340.41,359.39 348.00,360.10
             352.29,360.50 354.28,362.16 356.42,361.76
             359.15,361.26 363.03,356.95 365.00,355.00
             372.73,347.31 377.98,345.18 378.00,334.00
             378.00,334.00 378.00,315.00 378.00,315.00
             378.05,312.76 377.99,310.22 379.60,308.45
             382.12,305.66 386.64,306.53 387.85,310.21
             387.85,310.21 387.85,330.00 387.85,330.00
             394.25,327.04 396.04,323.33 401.00,319.15
             402.94,317.51 405.20,315.80 407.89,316.66
             411.10,317.67 412.38,321.38 410.73,324.26
             410.73,324.26 397.00,339.00 397.00,339.00
             402.00,339.56 416.03,337.68 419.26,340.82
             421.81,343.30 420.97,348.38 415.98,349.84
             415.98,349.84 393.00,349.84 393.00,349.84
             381.24,350.02 380.88,355.08 372.99,362.99
             371.54,364.44 367.79,367.75 366.91,369.28
             362.72,376.56 372.73,376.99 377.00,377.00
             382.28,377.01 392.68,377.93 397.00,375.26
             397.00,375.26 415.09,357.89 415.09,357.89
             417.58,355.71 421.27,352.83 424.69,355.03
             427.55,356.87 426.96,360.51 425.40,363.00
             425.40,363.00 413.00,377.00 413.00,377.00
             417.32,377.00 432.52,375.93 435.17,378.74
             437.87,381.60 436.12,385.67 432.89,387.15
             429.88,388.52 417.05,388.00 413.00,388.00
             416.50,391.50 425.55,399.46 426.53,404.00
             427.79,409.90 422.04,411.76 417.76,408.82
             417.76,408.82 396.68,388.84 396.68,388.84
             394.46,387.83 391.42,388.00 389.00,388.00
             384.57,387.99 369.32,386.75 366.96,390.31
             364.56,393.93 368.70,397.36 371.00,399.67
             373.62,402.30 382.75,411.99 385.32,413.16
             387.37,414.09 389.79,413.99 392.00,414.00
             392.00,414.00 409.00,414.00 409.00,414.00
             411.78,414.01 415.34,413.79 417.77,415.31
             421.37,417.58 421.60,422.47 417.77,424.26
             415.89,425.14 412.13,425.00 410.00,425.00
             410.00,425.00 397.00,425.00 397.00,425.00
             400.04,428.86 409.86,437.82 410.95,441.09
             412.83,446.72 407.22,450.35 401.00,445.69
             401.00,445.69 388.00,434.00 388.00,434.00
             388.00,437.56 388.40,452.57 387.40,454.85
             385.79,458.56 380.65,458.69 378.82,455.44
             377.81,453.65 378.00,450.07 378.00,448.00
             377.99,441.21 379.59,426.20 375.69,421.00
             374.25,419.09 360.78,405.59 359.00,404.36
             354.96,401.57 351.88,403.43 351.07,408.02
             351.07,408.02 351.07,413.00 351.07,413.00
             350.99,416.67 350.62,429.33 351.60,432.00
             353.08,436.04 363.47,445.44 367.00,449.00
             369.85,451.87 376.40,457.61 372.71,462.18
             370.65,464.65 367.32,463.94 365.04,462.18
             360.07,458.47 356.60,452.92 350.79,450.00
             350.79,450.00 350.79,468.96 350.79,468.96
             349.73,471.86 347.29,474.14 344.10,473.16
             338.02,471.27 340.00,455.25 340.00,450.00
             340.00,450.00 324.05,463.18 324.05,463.18
             324.05,463.18 317.82,463.18 317.82,463.18
             317.82,463.18 317.82,457.00 317.82,457.00
             317.82,457.00 338.69,433.58 338.69,433.58
             338.69,433.58 340.00,426.00 340.00,426.00
             340.00,426.00 340.00,404.00 340.00,404.00 Z" />
</svg>
